<mxfile host="app.diagrams.net" agent="Mozilla/5.0 (Windows NT 10.0; Win64; x64) AppleWebKit/537.36 (KHTML, like Gecko) Chrome/131.0.0.0 Safari/537.36 Edg/131.0.0.0" version="26.0.6">
  <diagram name="Page-1" id="AodFJdm0ZG5RY3dzoxIX">
    <mxGraphModel dx="3096" dy="1437" grid="1" gridSize="10" guides="1" tooltips="1" connect="1" arrows="1" fold="1" page="1" pageScale="1" pageWidth="850" pageHeight="1100" math="0" shadow="0">
      <root>
        <mxCell id="0" />
        <mxCell id="1" parent="0" />
        <mxCell id="A7VcdMrSjQs3wccWMF0f-2" value="&lt;i&gt;Soil Infiltration&lt;/i&gt;" style="swimlane;fontStyle=0;childLayout=stackLayout;horizontal=1;startSize=30;horizontalStack=0;resizeParent=1;resizeParentMax=0;resizeLast=0;collapsible=1;marginBottom=0;whiteSpace=wrap;html=1;" vertex="1" parent="1">
          <mxGeometry x="320" y="160" width="120" height="120" as="geometry" />
        </mxCell>
        <mxCell id="A7VcdMrSjQs3wccWMF0f-3" value="+ Snowmelt" style="text;strokeColor=none;fillColor=none;align=left;verticalAlign=middle;spacingLeft=4;spacingRight=4;overflow=hidden;points=[[0,0.5],[1,0.5]];portConstraint=eastwest;rotatable=0;whiteSpace=wrap;html=1;" vertex="1" parent="A7VcdMrSjQs3wccWMF0f-2">
          <mxGeometry y="30" width="120" height="30" as="geometry" />
        </mxCell>
        <mxCell id="A7VcdMrSjQs3wccWMF0f-4" value="+ Throughfall" style="text;strokeColor=none;fillColor=none;align=left;verticalAlign=middle;spacingLeft=4;spacingRight=4;overflow=hidden;points=[[0,0.5],[1,0.5]];portConstraint=eastwest;rotatable=0;whiteSpace=wrap;html=1;" vertex="1" parent="A7VcdMrSjQs3wccWMF0f-2">
          <mxGeometry y="60" width="120" height="30" as="geometry" />
        </mxCell>
        <mxCell id="A7VcdMrSjQs3wccWMF0f-5" value="- Hortonian Runoff" style="text;strokeColor=none;fillColor=none;align=left;verticalAlign=middle;spacingLeft=4;spacingRight=4;overflow=hidden;points=[[0,0.5],[1,0.5]];portConstraint=eastwest;rotatable=0;whiteSpace=wrap;html=1;" vertex="1" parent="A7VcdMrSjQs3wccWMF0f-2">
          <mxGeometry y="90" width="120" height="30" as="geometry" />
        </mxCell>
        <mxCell id="A7VcdMrSjQs3wccWMF0f-42" style="edgeStyle=orthogonalEdgeStyle;rounded=0;orthogonalLoop=1;jettySize=auto;html=1;exitX=0;exitY=0.5;exitDx=0;exitDy=0;entryX=0.5;entryY=0;entryDx=0;entryDy=0;" edge="1" parent="1" source="A7VcdMrSjQs3wccWMF0f-76" target="A7VcdMrSjQs3wccWMF0f-35">
          <mxGeometry relative="1" as="geometry" />
        </mxCell>
        <mxCell id="A7VcdMrSjQs3wccWMF0f-44" value="Any flow above maximum&lt;div&gt;&amp;nbsp;preferential storage set to:&lt;/div&gt;" style="edgeLabel;html=1;align=center;verticalAlign=middle;resizable=0;points=[];" vertex="1" connectable="0" parent="A7VcdMrSjQs3wccWMF0f-42">
          <mxGeometry x="0.3934" y="-4" relative="1" as="geometry">
            <mxPoint as="offset" />
          </mxGeometry>
        </mxCell>
        <mxCell id="A7VcdMrSjQs3wccWMF0f-10" value="&lt;i&gt;Preferential Storage Reservoir&lt;/i&gt;" style="swimlane;fontStyle=0;childLayout=stackLayout;horizontal=1;startSize=30;horizontalStack=0;resizeParent=1;resizeParentMax=0;resizeLast=0;collapsible=1;marginBottom=0;whiteSpace=wrap;html=1;" vertex="1" parent="1">
          <mxGeometry x="-200" y="400" width="120" height="160" as="geometry" />
        </mxCell>
        <mxCell id="A7VcdMrSjQs3wccWMF0f-11" value="+ Max pref. infil." style="text;strokeColor=none;fillColor=none;align=left;verticalAlign=middle;spacingLeft=4;spacingRight=4;overflow=hidden;points=[[0,0.5],[1,0.5]];portConstraint=eastwest;rotatable=0;whiteSpace=wrap;html=1;" vertex="1" parent="A7VcdMrSjQs3wccWMF0f-10">
          <mxGeometry y="30" width="120" height="30" as="geometry" />
        </mxCell>
        <mxCell id="A7VcdMrSjQs3wccWMF0f-12" value="+ Previous storage" style="text;strokeColor=none;fillColor=none;align=left;verticalAlign=middle;spacingLeft=4;spacingRight=4;overflow=hidden;points=[[0,0.5],[1,0.5]];portConstraint=eastwest;rotatable=0;whiteSpace=wrap;html=1;" vertex="1" parent="A7VcdMrSjQs3wccWMF0f-10">
          <mxGeometry y="60" width="120" height="30" as="geometry" />
        </mxCell>
        <mxCell id="A7VcdMrSjQs3wccWMF0f-76" value="- Flow above preferential storage max" style="text;strokeColor=none;fillColor=none;align=left;verticalAlign=middle;spacingLeft=4;spacingRight=4;overflow=hidden;points=[[0,0.5],[1,0.5]];portConstraint=eastwest;rotatable=0;whiteSpace=wrap;html=1;" vertex="1" parent="A7VcdMrSjQs3wccWMF0f-10">
          <mxGeometry y="90" width="120" height="70" as="geometry" />
        </mxCell>
        <mxCell id="A7VcdMrSjQs3wccWMF0f-14" value="&lt;i&gt;Capillary Reservoir&lt;/i&gt;" style="swimlane;fontStyle=0;childLayout=stackLayout;horizontal=1;startSize=30;horizontalStack=0;resizeParent=1;resizeParentMax=0;resizeLast=0;collapsible=1;marginBottom=0;whiteSpace=wrap;html=1;" vertex="1" parent="1">
          <mxGeometry x="840" y="400" width="120" height="200" as="geometry">
            <mxRectangle x="440" y="400" width="140" height="30" as="alternateBounds" />
          </mxGeometry>
        </mxCell>
        <mxCell id="A7VcdMrSjQs3wccWMF0f-15" value="+ Capillary inflow fraction of soil infiltration" style="text;strokeColor=none;fillColor=none;align=left;verticalAlign=middle;spacingLeft=4;spacingRight=4;overflow=hidden;points=[[0,0.5],[1,0.5]];portConstraint=eastwest;rotatable=0;whiteSpace=wrap;html=1;" vertex="1" parent="A7VcdMrSjQs3wccWMF0f-14">
          <mxGeometry y="30" width="120" height="50" as="geometry" />
        </mxCell>
        <mxCell id="A7VcdMrSjQs3wccWMF0f-16" value="+ Cascading dunnian runoff" style="text;strokeColor=none;fillColor=none;align=left;verticalAlign=middle;spacingLeft=4;spacingRight=4;overflow=hidden;points=[[0,0.5],[1,0.5]];portConstraint=eastwest;rotatable=0;whiteSpace=wrap;html=1;" vertex="1" parent="A7VcdMrSjQs3wccWMF0f-14">
          <mxGeometry y="80" width="120" height="70" as="geometry" />
        </mxCell>
        <mxCell id="A7VcdMrSjQs3wccWMF0f-17" value="+ Slow &amp;amp; fast interflow" style="text;strokeColor=none;fillColor=none;align=left;verticalAlign=middle;spacingLeft=4;spacingRight=4;overflow=hidden;points=[[0,0.5],[1,0.5]];portConstraint=eastwest;rotatable=0;whiteSpace=wrap;html=1;" vertex="1" parent="A7VcdMrSjQs3wccWMF0f-14">
          <mxGeometry y="150" width="120" height="50" as="geometry" />
        </mxCell>
        <mxCell id="A7VcdMrSjQs3wccWMF0f-19" value="" style="endArrow=classic;html=1;rounded=0;entryX=0.454;entryY=0.014;entryDx=0;entryDy=0;entryPerimeter=0;" edge="1" parent="1" target="A7VcdMrSjQs3wccWMF0f-10">
          <mxGeometry relative="1" as="geometry">
            <mxPoint x="375" y="280" as="sourcePoint" />
            <mxPoint x="210" y="350" as="targetPoint" />
          </mxGeometry>
        </mxCell>
        <mxCell id="A7VcdMrSjQs3wccWMF0f-26" value="%" style="edgeLabel;html=1;align=center;verticalAlign=middle;resizable=0;points=[];fontSize=18;" vertex="1" connectable="0" parent="A7VcdMrSjQs3wccWMF0f-19">
          <mxGeometry x="0.0169" y="-2" relative="1" as="geometry">
            <mxPoint x="6" y="-4" as="offset" />
          </mxGeometry>
        </mxCell>
        <mxCell id="A7VcdMrSjQs3wccWMF0f-29" value="" style="endArrow=classic;html=1;rounded=0;entryX=0.5;entryY=0;entryDx=0;entryDy=0;" edge="1" parent="1" target="A7VcdMrSjQs3wccWMF0f-14">
          <mxGeometry relative="1" as="geometry">
            <mxPoint x="380" y="280" as="sourcePoint" />
            <mxPoint x="260" y="401" as="targetPoint" />
          </mxGeometry>
        </mxCell>
        <mxCell id="A7VcdMrSjQs3wccWMF0f-30" value="%" style="edgeLabel;html=1;align=center;verticalAlign=middle;resizable=0;points=[];fontSize=18;" vertex="1" connectable="0" parent="A7VcdMrSjQs3wccWMF0f-29">
          <mxGeometry x="0.0169" y="-2" relative="1" as="geometry">
            <mxPoint x="6" y="-4" as="offset" />
          </mxGeometry>
        </mxCell>
        <mxCell id="A7VcdMrSjQs3wccWMF0f-35" value="Dunnian Runoff" style="shape=parallelogram;perimeter=parallelogramPerimeter;whiteSpace=wrap;html=1;fixedSize=1;" vertex="1" parent="1">
          <mxGeometry x="-600" y="580" width="160" height="70" as="geometry" />
        </mxCell>
        <mxCell id="A7VcdMrSjQs3wccWMF0f-38" value="Recharge Zone" style="shape=parallelogram;perimeter=parallelogramPerimeter;whiteSpace=wrap;html=1;fixedSize=1;" vertex="1" parent="1">
          <mxGeometry x="1290" y="680" width="160" height="70" as="geometry" />
        </mxCell>
        <mxCell id="A7VcdMrSjQs3wccWMF0f-46" style="edgeStyle=orthogonalEdgeStyle;rounded=0;orthogonalLoop=1;jettySize=auto;html=1;exitX=1;exitY=0.5;exitDx=0;exitDy=0;entryX=0.569;entryY=0.03;entryDx=0;entryDy=0;entryPerimeter=0;" edge="1" parent="1" source="A7VcdMrSjQs3wccWMF0f-16" target="A7VcdMrSjQs3wccWMF0f-38">
          <mxGeometry relative="1" as="geometry" />
        </mxCell>
        <mxCell id="A7VcdMrSjQs3wccWMF0f-47" value="Add max capillary inflow to recharge&lt;div&gt;&amp;nbsp;zone up to max recharge capacity&lt;/div&gt;" style="edgeLabel;html=1;align=center;verticalAlign=middle;resizable=0;points=[];" vertex="1" connectable="0" parent="A7VcdMrSjQs3wccWMF0f-46">
          <mxGeometry x="0.4527" relative="1" as="geometry">
            <mxPoint as="offset" />
          </mxGeometry>
        </mxCell>
        <mxCell id="A7VcdMrSjQs3wccWMF0f-57" value="&lt;i&gt;Gravity Reservoir&lt;/i&gt;" style="swimlane;fontStyle=0;childLayout=stackLayout;horizontal=1;startSize=30;horizontalStack=0;resizeParent=1;resizeParentMax=0;resizeLast=0;collapsible=1;marginBottom=0;whiteSpace=wrap;html=1;" vertex="1" parent="1">
          <mxGeometry x="40" y="560" width="120" height="240" as="geometry">
            <mxRectangle x="440" y="400" width="140" height="30" as="alternateBounds" />
          </mxGeometry>
        </mxCell>
        <mxCell id="A7VcdMrSjQs3wccWMF0f-58" value="+ Excess inflow to capillary reservoir" style="text;strokeColor=none;fillColor=none;align=left;verticalAlign=middle;spacingLeft=4;spacingRight=4;overflow=hidden;points=[[0,0.5],[1,0.5]];portConstraint=eastwest;rotatable=0;whiteSpace=wrap;html=1;" vertex="1" parent="A7VcdMrSjQs3wccWMF0f-57">
          <mxGeometry y="30" width="120" height="50" as="geometry" />
        </mxCell>
        <mxCell id="A7VcdMrSjQs3wccWMF0f-59" value="+ Excess inflow to capillary reservoir above soil2gw_max" style="text;strokeColor=none;fillColor=none;align=left;verticalAlign=middle;spacingLeft=4;spacingRight=4;overflow=hidden;points=[[0,0.5],[1,0.5]];portConstraint=eastwest;rotatable=0;whiteSpace=wrap;html=1;" vertex="1" parent="A7VcdMrSjQs3wccWMF0f-57">
          <mxGeometry y="80" width="120" height="70" as="geometry" />
        </mxCell>
        <mxCell id="A7VcdMrSjQs3wccWMF0f-78" value="+ Previous Storage" style="text;strokeColor=none;fillColor=none;align=left;verticalAlign=middle;spacingLeft=4;spacingRight=4;overflow=hidden;points=[[0,0.5],[1,0.5]];portConstraint=eastwest;rotatable=0;whiteSpace=wrap;html=1;" vertex="1" parent="A7VcdMrSjQs3wccWMF0f-57">
          <mxGeometry y="150" width="120" height="30" as="geometry" />
        </mxCell>
        <mxCell id="A7VcdMrSjQs3wccWMF0f-79" value="- Storage above preferential flow threshold" style="text;strokeColor=none;fillColor=none;align=left;verticalAlign=middle;spacingLeft=4;spacingRight=4;overflow=hidden;points=[[0,0.5],[1,0.5]];portConstraint=eastwest;rotatable=0;whiteSpace=wrap;html=1;" vertex="1" parent="A7VcdMrSjQs3wccWMF0f-57">
          <mxGeometry y="180" width="120" height="60" as="geometry" />
        </mxCell>
        <mxCell id="A7VcdMrSjQs3wccWMF0f-62" value="&lt;i&gt;Groundwater Reservoir&lt;/i&gt;" style="swimlane;fontStyle=0;childLayout=stackLayout;horizontal=1;startSize=30;horizontalStack=0;resizeParent=1;resizeParentMax=0;resizeLast=0;collapsible=1;marginBottom=0;whiteSpace=wrap;html=1;" vertex="1" parent="1">
          <mxGeometry x="520" y="560" width="120" height="150" as="geometry">
            <mxRectangle x="440" y="400" width="140" height="30" as="alternateBounds" />
          </mxGeometry>
        </mxCell>
        <mxCell id="A7VcdMrSjQs3wccWMF0f-63" value="+ excess inflow to capillary reservoir&amp;nbsp;" style="text;strokeColor=none;fillColor=none;align=left;verticalAlign=middle;spacingLeft=4;spacingRight=4;overflow=hidden;points=[[0,0.5],[1,0.5]];portConstraint=eastwest;rotatable=0;whiteSpace=wrap;html=1;" vertex="1" parent="A7VcdMrSjQs3wccWMF0f-62">
          <mxGeometry y="30" width="120" height="50" as="geometry" />
        </mxCell>
        <mxCell id="A7VcdMrSjQs3wccWMF0f-65" value="- Any inflow to groundwater reservoir above soil2gw_max" style="text;strokeColor=none;fillColor=none;align=left;verticalAlign=middle;spacingLeft=4;spacingRight=4;overflow=hidden;points=[[0,0.5],[1,0.5]];portConstraint=eastwest;rotatable=0;whiteSpace=wrap;html=1;" vertex="1" parent="A7VcdMrSjQs3wccWMF0f-62">
          <mxGeometry y="80" width="120" height="70" as="geometry" />
        </mxCell>
        <mxCell id="A7VcdMrSjQs3wccWMF0f-70" value="" style="endArrow=classic;html=1;rounded=0;entryX=1;entryY=0.5;entryDx=0;entryDy=0;exitX=0;exitY=0.5;exitDx=0;exitDy=0;fontStyle=1" edge="1" parent="1" source="A7VcdMrSjQs3wccWMF0f-65" target="A7VcdMrSjQs3wccWMF0f-59">
          <mxGeometry relative="1" as="geometry">
            <mxPoint x="680.0000000000005" y="835.0000000000002" as="sourcePoint" />
            <mxPoint x="640" y="860" as="targetPoint" />
          </mxGeometry>
        </mxCell>
        <mxCell id="A7VcdMrSjQs3wccWMF0f-71" value="&lt;b&gt;IF soil2gw_max &amp;gt; 0&lt;/b&gt;" style="edgeLabel;html=1;align=center;verticalAlign=middle;resizable=0;points=[];fontSize=18;" vertex="1" connectable="0" parent="A7VcdMrSjQs3wccWMF0f-70">
          <mxGeometry x="0.0169" y="-2" relative="1" as="geometry">
            <mxPoint x="6" y="-4" as="offset" />
          </mxGeometry>
        </mxCell>
        <mxCell id="A7VcdMrSjQs3wccWMF0f-80" value="" style="endArrow=classic;html=1;rounded=0;exitX=0;exitY=0.5;exitDx=0;exitDy=0;" edge="1" parent="1">
          <mxGeometry relative="1" as="geometry">
            <mxPoint x="40.000000000000455" y="775.0000000000002" as="sourcePoint" />
            <mxPoint x="-80" y="525" as="targetPoint" />
            <Array as="points">
              <mxPoint x="-80" y="775" />
            </Array>
          </mxGeometry>
        </mxCell>
        <mxCell id="A7VcdMrSjQs3wccWMF0f-81" value="&lt;font style=&quot;font-size: 11px;&quot;&gt;Storage above preferential&lt;/font&gt;&lt;div&gt;&lt;font style=&quot;font-size: 11px;&quot;&gt;flow threshold&lt;/font&gt;&lt;/div&gt;" style="edgeLabel;html=1;align=center;verticalAlign=middle;resizable=0;points=[];fontSize=18;" vertex="1" connectable="0" parent="A7VcdMrSjQs3wccWMF0f-80">
          <mxGeometry x="0.0169" y="-2" relative="1" as="geometry">
            <mxPoint x="6" y="-4" as="offset" />
          </mxGeometry>
        </mxCell>
        <mxCell id="A7VcdMrSjQs3wccWMF0f-85" value="&lt;i&gt;Groundwater Reservoir&lt;/i&gt;" style="swimlane;fontStyle=0;childLayout=stackLayout;horizontal=1;startSize=30;horizontalStack=0;resizeParent=1;resizeParentMax=0;resizeLast=0;collapsible=1;marginBottom=0;whiteSpace=wrap;html=1;" vertex="1" parent="1">
          <mxGeometry x="520" y="1030" width="120" height="130" as="geometry">
            <mxRectangle x="440" y="400" width="140" height="30" as="alternateBounds" />
          </mxGeometry>
        </mxCell>
        <mxCell id="A7VcdMrSjQs3wccWMF0f-86" value="+ Antecedent storage" style="text;strokeColor=none;fillColor=none;align=left;verticalAlign=middle;spacingLeft=4;spacingRight=4;overflow=hidden;points=[[0,0.5],[1,0.5]];portConstraint=eastwest;rotatable=0;whiteSpace=wrap;html=1;" vertex="1" parent="A7VcdMrSjQs3wccWMF0f-85">
          <mxGeometry y="30" width="120" height="60" as="geometry" />
        </mxCell>
        <mxCell id="A7VcdMrSjQs3wccWMF0f-100" value="+ Gravity drainage" style="text;strokeColor=none;fillColor=none;align=left;verticalAlign=middle;spacingLeft=4;spacingRight=4;overflow=hidden;points=[[0,0.5],[1,0.5]];portConstraint=eastwest;rotatable=0;whiteSpace=wrap;html=1;" vertex="1" parent="A7VcdMrSjQs3wccWMF0f-85">
          <mxGeometry y="90" width="120" height="40" as="geometry" />
        </mxCell>
        <mxCell id="A7VcdMrSjQs3wccWMF0f-88" value="" style="endArrow=classic;html=1;rounded=0;entryX=0.5;entryY=0;entryDx=0;entryDy=0;exitX=0.493;exitY=1.01;exitDx=0;exitDy=0;exitPerimeter=0;" edge="1" parent="1" source="A7VcdMrSjQs3wccWMF0f-65" target="A7VcdMrSjQs3wccWMF0f-85">
          <mxGeometry relative="1" as="geometry">
            <mxPoint x="730" y="870" as="sourcePoint" />
            <mxPoint x="850" y="990" as="targetPoint" />
          </mxGeometry>
        </mxCell>
        <mxCell id="A7VcdMrSjQs3wccWMF0f-91" value="&lt;i&gt;Gravity Reservoir&lt;/i&gt;" style="swimlane;fontStyle=0;childLayout=stackLayout;horizontal=1;startSize=30;horizontalStack=0;resizeParent=1;resizeParentMax=0;resizeLast=0;collapsible=1;marginBottom=0;whiteSpace=wrap;html=1;" vertex="1" parent="1">
          <mxGeometry x="40" y="960" width="120" height="200" as="geometry">
            <mxRectangle x="440" y="400" width="140" height="30" as="alternateBounds" />
          </mxGeometry>
        </mxCell>
        <mxCell id="A7VcdMrSjQs3wccWMF0f-92" value="+ Antecedent storage" style="text;strokeColor=none;fillColor=none;align=left;verticalAlign=middle;spacingLeft=4;spacingRight=4;overflow=hidden;points=[[0,0.5],[1,0.5]];portConstraint=eastwest;rotatable=0;whiteSpace=wrap;html=1;" vertex="1" parent="A7VcdMrSjQs3wccWMF0f-91">
          <mxGeometry y="30" width="120" height="50" as="geometry" />
        </mxCell>
        <mxCell id="A7VcdMrSjQs3wccWMF0f-98" value="- Calculate and remove slow interflow" style="text;strokeColor=none;fillColor=none;align=left;verticalAlign=middle;spacingLeft=4;spacingRight=4;overflow=hidden;points=[[0,0.5],[1,0.5]];portConstraint=eastwest;rotatable=0;whiteSpace=wrap;html=1;" vertex="1" parent="A7VcdMrSjQs3wccWMF0f-91">
          <mxGeometry y="80" width="120" height="80" as="geometry" />
        </mxCell>
        <mxCell id="A7VcdMrSjQs3wccWMF0f-99" value="- Gravity drainage" style="text;strokeColor=none;fillColor=none;align=left;verticalAlign=middle;spacingLeft=4;spacingRight=4;overflow=hidden;points=[[0,0.5],[1,0.5]];portConstraint=eastwest;rotatable=0;whiteSpace=wrap;html=1;" vertex="1" parent="A7VcdMrSjQs3wccWMF0f-91">
          <mxGeometry y="160" width="120" height="40" as="geometry" />
        </mxCell>
        <mxCell id="A7VcdMrSjQs3wccWMF0f-101" value="" style="endArrow=classic;html=1;rounded=0;entryX=0;entryY=0.5;entryDx=0;entryDy=0;" edge="1" parent="A7VcdMrSjQs3wccWMF0f-91" target="A7VcdMrSjQs3wccWMF0f-100">
          <mxGeometry relative="1" as="geometry">
            <mxPoint x="120" y="180" as="sourcePoint" />
            <mxPoint x="120.5" y="280" as="targetPoint" />
          </mxGeometry>
        </mxCell>
        <mxCell id="A7VcdMrSjQs3wccWMF0f-102" value="Gravity drainage" style="edgeLabel;html=1;align=center;verticalAlign=middle;resizable=0;points=[];" vertex="1" connectable="0" parent="A7VcdMrSjQs3wccWMF0f-101">
          <mxGeometry x="-0.0045" y="3" relative="1" as="geometry">
            <mxPoint x="-1" as="offset" />
          </mxGeometry>
        </mxCell>
        <mxCell id="A7VcdMrSjQs3wccWMF0f-97" value="" style="endArrow=classic;html=1;rounded=0;exitX=0.508;exitY=1.049;exitDx=0;exitDy=0;exitPerimeter=0;entryX=0.5;entryY=0;entryDx=0;entryDy=0;" edge="1" parent="1" source="A7VcdMrSjQs3wccWMF0f-79" target="A7VcdMrSjQs3wccWMF0f-91">
          <mxGeometry relative="1" as="geometry">
            <mxPoint x="259.5" y="970" as="sourcePoint" />
            <mxPoint x="261" y="1080" as="targetPoint" />
          </mxGeometry>
        </mxCell>
        <mxCell id="A7VcdMrSjQs3wccWMF0f-103" value="" style="endArrow=classic;html=1;rounded=0;exitX=0.497;exitY=0.99;exitDx=0;exitDy=0;exitPerimeter=0;entryX=0.5;entryY=0;entryDx=0;entryDy=0;" edge="1" parent="1" source="A7VcdMrSjQs3wccWMF0f-76" target="A7VcdMrSjQs3wccWMF0f-104">
          <mxGeometry relative="1" as="geometry">
            <mxPoint x="-140.25" y="880" as="sourcePoint" />
            <mxPoint x="-139.75" y="990" as="targetPoint" />
          </mxGeometry>
        </mxCell>
        <mxCell id="A7VcdMrSjQs3wccWMF0f-104" value="&lt;i&gt;Preferential Storage Reservoir&lt;/i&gt;" style="swimlane;fontStyle=0;childLayout=stackLayout;horizontal=1;startSize=30;horizontalStack=0;resizeParent=1;resizeParentMax=0;resizeLast=0;collapsible=1;marginBottom=0;whiteSpace=wrap;html=1;" vertex="1" parent="1">
          <mxGeometry x="-200" y="840" width="120" height="130" as="geometry" />
        </mxCell>
        <mxCell id="A7VcdMrSjQs3wccWMF0f-105" value="+ Antecedent storage" style="text;strokeColor=none;fillColor=none;align=left;verticalAlign=middle;spacingLeft=4;spacingRight=4;overflow=hidden;points=[[0,0.5],[1,0.5]];portConstraint=eastwest;rotatable=0;whiteSpace=wrap;html=1;" vertex="1" parent="A7VcdMrSjQs3wccWMF0f-104">
          <mxGeometry y="30" width="120" height="40" as="geometry" />
        </mxCell>
        <mxCell id="A7VcdMrSjQs3wccWMF0f-106" value="- Calculate and remove fast interflow" style="text;strokeColor=none;fillColor=none;align=left;verticalAlign=middle;spacingLeft=4;spacingRight=4;overflow=hidden;points=[[0,0.5],[1,0.5]];portConstraint=eastwest;rotatable=0;whiteSpace=wrap;html=1;" vertex="1" parent="A7VcdMrSjQs3wccWMF0f-104">
          <mxGeometry y="70" width="120" height="60" as="geometry" />
        </mxCell>
        <mxCell id="A7VcdMrSjQs3wccWMF0f-109" value="" style="endArrow=classic;html=1;rounded=0;" edge="1" parent="1">
          <mxGeometry relative="1" as="geometry">
            <mxPoint x="-520" y="650" as="sourcePoint" />
            <mxPoint x="-520" y="1280" as="targetPoint" />
          </mxGeometry>
        </mxCell>
        <mxCell id="A7VcdMrSjQs3wccWMF0f-110" value="&lt;b&gt;IF Cascades Active&lt;/b&gt;" style="edgeLabel;html=1;align=center;verticalAlign=middle;resizable=0;points=[];fontSize=18;" vertex="1" connectable="0" parent="A7VcdMrSjQs3wccWMF0f-109">
          <mxGeometry x="0.0169" y="-2" relative="1" as="geometry">
            <mxPoint x="6" y="-4" as="offset" />
          </mxGeometry>
        </mxCell>
        <mxCell id="A7VcdMrSjQs3wccWMF0f-111" value="Cascading Flow" style="shape=parallelogram;perimeter=parallelogramPerimeter;whiteSpace=wrap;html=1;fixedSize=1;" vertex="1" parent="1">
          <mxGeometry x="-600" y="1280" width="160" height="70" as="geometry" />
        </mxCell>
        <mxCell id="A7VcdMrSjQs3wccWMF0f-112" value="" style="endArrow=classic;html=1;rounded=0;exitX=0.493;exitY=1.01;exitDx=0;exitDy=0;exitPerimeter=0;" edge="1" parent="1">
          <mxGeometry relative="1" as="geometry">
            <mxPoint x="-200" y="940" as="sourcePoint" />
            <mxPoint x="-518.82" y="940" as="targetPoint" />
          </mxGeometry>
        </mxCell>
        <mxCell id="A7VcdMrSjQs3wccWMF0f-114" value="Add fast interflow" style="edgeLabel;html=1;align=center;verticalAlign=middle;resizable=0;points=[];" vertex="1" connectable="0" parent="A7VcdMrSjQs3wccWMF0f-112">
          <mxGeometry x="0.036" y="2" relative="1" as="geometry">
            <mxPoint x="1" as="offset" />
          </mxGeometry>
        </mxCell>
        <mxCell id="A7VcdMrSjQs3wccWMF0f-113" value="" style="endArrow=classic;html=1;rounded=0;exitX=0;exitY=0.5;exitDx=0;exitDy=0;" edge="1" parent="1" source="A7VcdMrSjQs3wccWMF0f-98">
          <mxGeometry relative="1" as="geometry">
            <mxPoint x="40" y="1080" as="sourcePoint" />
            <mxPoint x="-520" y="1080" as="targetPoint" />
          </mxGeometry>
        </mxCell>
        <mxCell id="A7VcdMrSjQs3wccWMF0f-115" value="Add slow interflow" style="edgeLabel;html=1;align=center;verticalAlign=middle;resizable=0;points=[];" vertex="1" connectable="0" parent="A7VcdMrSjQs3wccWMF0f-113">
          <mxGeometry x="0.0017" y="-2" relative="1" as="geometry">
            <mxPoint x="-1" as="offset" />
          </mxGeometry>
        </mxCell>
        <mxCell id="A7VcdMrSjQs3wccWMF0f-116" style="edgeStyle=orthogonalEdgeStyle;rounded=0;orthogonalLoop=1;jettySize=auto;html=1;exitX=0;exitY=0.085;exitDx=0;exitDy=0;entryX=0.5;entryY=0;entryDx=0;entryDy=0;exitPerimeter=0;" edge="1" parent="1" source="A7VcdMrSjQs3wccWMF0f-14" target="A7VcdMrSjQs3wccWMF0f-57">
          <mxGeometry relative="1" as="geometry" />
        </mxCell>
        <mxCell id="A7VcdMrSjQs3wccWMF0f-117" value="&lt;font style=&quot;font-size: 18px;&quot;&gt;&lt;b&gt;IF soil2gw_max = 0&lt;/b&gt;&lt;/font&gt;" style="edgeLabel;html=1;align=center;verticalAlign=middle;resizable=0;points=[];" vertex="1" connectable="0" parent="A7VcdMrSjQs3wccWMF0f-116">
          <mxGeometry x="0.5812" y="1" relative="1" as="geometry">
            <mxPoint x="-44" as="offset" />
          </mxGeometry>
        </mxCell>
        <mxCell id="A7VcdMrSjQs3wccWMF0f-119" value="&lt;font style=&quot;font-size: 18px;&quot;&gt;&lt;b&gt;IF soil2gw_max &amp;gt; 0&lt;/b&gt;&lt;/font&gt;" style="edgeLabel;html=1;align=center;verticalAlign=middle;resizable=0;points=[];" vertex="1" connectable="0" parent="A7VcdMrSjQs3wccWMF0f-116">
          <mxGeometry x="-0.3577" y="-3" relative="1" as="geometry">
            <mxPoint x="26" as="offset" />
          </mxGeometry>
        </mxCell>
        <mxCell id="A7VcdMrSjQs3wccWMF0f-120" value="" style="endArrow=classic;html=1;rounded=0;entryX=0.5;entryY=0;entryDx=0;entryDy=0;" edge="1" parent="1" target="A7VcdMrSjQs3wccWMF0f-62">
          <mxGeometry width="50" height="50" relative="1" as="geometry">
            <mxPoint x="580" y="430" as="sourcePoint" />
            <mxPoint x="630" y="410" as="targetPoint" />
          </mxGeometry>
        </mxCell>
        <mxCell id="A7VcdMrSjQs3wccWMF0f-122" value="" style="endArrow=classic;html=1;rounded=0;exitX=0.487;exitY=1.087;exitDx=0;exitDy=0;exitPerimeter=0;" edge="1" parent="1" source="A7VcdMrSjQs3wccWMF0f-17">
          <mxGeometry width="50" height="50" relative="1" as="geometry">
            <mxPoint x="900" y="670" as="sourcePoint" />
            <mxPoint x="898" y="920" as="targetPoint" />
          </mxGeometry>
        </mxCell>
        <mxCell id="A7VcdMrSjQs3wccWMF0f-123" value="&lt;i&gt;Capillary Reservoir&lt;/i&gt;" style="swimlane;fontStyle=0;childLayout=stackLayout;horizontal=1;startSize=30;horizontalStack=0;resizeParent=1;resizeParentMax=0;resizeLast=0;collapsible=1;marginBottom=0;whiteSpace=wrap;html=1;" vertex="1" parent="1">
          <mxGeometry x="840" y="920" width="120" height="80" as="geometry">
            <mxRectangle x="440" y="400" width="140" height="30" as="alternateBounds" />
          </mxGeometry>
        </mxCell>
        <mxCell id="A7VcdMrSjQs3wccWMF0f-124" value="- ET from upper and Lower Zones" style="text;strokeColor=none;fillColor=none;align=left;verticalAlign=middle;spacingLeft=4;spacingRight=4;overflow=hidden;points=[[0,0.5],[1,0.5]];portConstraint=eastwest;rotatable=0;whiteSpace=wrap;html=1;" vertex="1" parent="A7VcdMrSjQs3wccWMF0f-123">
          <mxGeometry y="30" width="120" height="50" as="geometry" />
        </mxCell>
        <mxCell id="A7VcdMrSjQs3wccWMF0f-127" value="Recharge Zone" style="shape=parallelogram;perimeter=parallelogramPerimeter;whiteSpace=wrap;html=1;fixedSize=1;" vertex="1" parent="1">
          <mxGeometry x="1275" y="920" width="160" height="70" as="geometry" />
        </mxCell>
        <mxCell id="A7VcdMrSjQs3wccWMF0f-128" value="" style="endArrow=classic;html=1;rounded=0;exitX=0.487;exitY=1.087;exitDx=0;exitDy=0;exitPerimeter=0;" edge="1" parent="1">
          <mxGeometry width="50" height="50" relative="1" as="geometry">
            <mxPoint x="1380" y="750" as="sourcePoint" />
            <mxPoint x="1380" y="920" as="targetPoint" />
          </mxGeometry>
        </mxCell>
        <mxCell id="A7VcdMrSjQs3wccWMF0f-129" value="Remove ET" style="edgeLabel;html=1;align=center;verticalAlign=middle;resizable=0;points=[];" vertex="1" connectable="0" parent="A7VcdMrSjQs3wccWMF0f-128">
          <mxGeometry x="0.0034" relative="1" as="geometry">
            <mxPoint as="offset" />
          </mxGeometry>
        </mxCell>
      </root>
    </mxGraphModel>
  </diagram>
</mxfile>
